<svg xmlns="http://www.w3.org/2000/svg" xmlns:xlink="http://www.w3.org/1999/xlink" version="1.1" id="Layer_1" x="0px" y="0px" viewBox="0 0 296 66" style="enable-background:new 0 0 296 66;" xml:space="preserve" width="296"  height="66" >
<style type="text/css">
	.st0{fill:#626162;}
	.st1{fill:#E50019;}
	.st2{enable-background:new    ;}
	.st3{fill:#292828;}
</style>
<g id="Group_78" transform="translate(-291 -28.969)">
	<g id="Group_77" transform="translate(291 28.969)">
		<g id="Group_3">
			<g id="Group_2" transform="translate(21.916)">
				<path id="Path_1" class="st0" d="M25.7,0L25.7,0L25.7,0L0,23.3v36.8h10.6V28l15-13.7l15,13.7v32.1h10.6V23.3L25.7,0z"/>
			</g>
			<path id="Path_2" class="st1" d="M25.7,0L25.7,0L25.7,0L10.6,13.7V5.9H0v54.2h10.6V28l15-13.7l15,13.7v32.1h10.6V23.3L25.7,0z"/>
		</g>
		<g class="st2">
			<path class="st3" d="M100.9,25h2.7v6.1c-0.8,0.6-1.8,1.1-3,1.5s-2.3,0.6-3.4,0.6c-1.6,0-3-0.4-4.3-1.1c-1.3-0.7-2.3-1.7-3.1-3     c-0.8-1.3-1.1-2.7-1.1-4.2c0-1.5,0.4-2.9,1.1-4.2c0.8-1.2,1.8-2.2,3.1-3c1.3-0.7,2.8-1.1,4.4-1.1c1.1,0,2.3,0.2,3.4,0.6     c1.1,0.4,2.1,1,2.9,1.7l-1.7,2.3c-0.6-0.6-1.3-1-2.1-1.4c-0.8-0.3-1.6-0.5-2.4-0.5c-1,0-1.9,0.2-2.8,0.7c-0.9,0.5-1.5,1.1-2,2     C92.1,23,91.9,24,91.9,25c0,1,0.2,1.9,0.7,2.8c0.5,0.8,1.2,1.5,2,2c0.8,0.5,1.8,0.7,2.8,0.7c0.6,0,1.1-0.1,1.7-0.3     c0.6-0.2,1.2-0.4,1.7-0.7V25z"/>
			<path class="st3" d="M107.2,16.9H119v2.7h-8.7v4h7.8v2.7h-7.8v4h9V33h-12.1V16.9z"/>
			<path class="st3" d="M129.9,19.9c-0.9-0.3-1.6-0.4-2.3-0.4c-0.7,0-1.3,0.1-1.7,0.4c-0.4,0.3-0.6,0.7-0.6,1.1     c0,0.4,0.1,0.8,0.4,1.1c0.3,0.3,0.7,0.5,1.1,0.7c0.5,0.2,1.1,0.4,1.9,0.6c1.1,0.3,2,0.6,2.7,1s1.3,0.8,1.8,1.4     c0.5,0.6,0.7,1.5,0.7,2.5c0,1-0.3,1.8-0.8,2.6c-0.5,0.7-1.3,1.3-2.2,1.7c-0.9,0.4-2,0.6-3.2,0.6c-1.3,0-2.5-0.2-3.7-0.7     c-1.2-0.5-2.2-1.1-3.1-1.9l1.3-2.6c0.8,0.8,1.7,1.3,2.7,1.8c1,0.4,2,0.6,2.8,0.6c0.9,0,1.5-0.2,2-0.5c0.5-0.3,0.7-0.8,0.7-1.3     c0-0.5-0.1-0.8-0.4-1.1c-0.3-0.3-0.7-0.5-1.1-0.7c-0.5-0.2-1.1-0.4-1.9-0.6c-1.1-0.3-2-0.6-2.7-0.9s-1.3-0.8-1.8-1.4     s-0.7-1.4-0.7-2.4c0-0.9,0.2-1.8,0.7-2.4c0.5-0.7,1.2-1.2,2.1-1.6c0.9-0.4,2-0.6,3.2-0.6c1,0,2.1,0.2,3.1,0.5     c1,0.3,1.9,0.7,2.7,1.2l-1.2,2.7C131.7,20.6,130.8,20.2,129.9,19.9z"/>
			<path class="st3" d="M135,16.9h13.1v2.7h-5V33H140V19.7h-5V16.9z"/>
			<path class="st3" d="M150.3,16.9h3.1V33h-3.1V16.9z"/>
			<path class="st3" d="M169,17.8c1.3,0.7,2.3,1.7,3.1,3s1.1,2.7,1.1,4.2c0,1.5-0.4,2.9-1.1,4.2c-0.8,1.3-1.8,2.3-3.1,3     s-2.8,1.1-4.4,1.1s-3-0.4-4.4-1.1s-2.3-1.7-3.1-3c-0.8-1.3-1.1-2.7-1.1-4.2c0-1.5,0.4-2.9,1.1-4.2s1.8-2.2,3.1-3s2.8-1.1,4.4-1.1     S167.7,17.1,169,17.8z M162,20.2c-0.8,0.5-1.5,1.1-2,2c-0.5,0.8-0.7,1.8-0.7,2.8c0,1,0.2,1.9,0.7,2.8c0.5,0.8,1.2,1.5,2,2     c0.8,0.5,1.7,0.7,2.7,0.7c1,0,1.9-0.2,2.7-0.7c0.8-0.5,1.5-1.2,2-2c0.5-0.8,0.7-1.8,0.7-2.8c0-1-0.2-1.9-0.7-2.8     c-0.5-0.8-1.1-1.5-2-2c-0.8-0.5-1.7-0.7-2.7-0.7C163.7,19.5,162.8,19.7,162,20.2z"/>
			<path class="st3" d="M187.2,16.9h3V33h-2.9L179,21.9V33h-3V16.9h2.9l8.3,11.1V16.9z"/>
		</g>
		<g class="st2">
			<path class="st3" d="M90,43.9h3.5l5.3,10.4l5.3-10.4h3.5V60h-2.8V48.5l-5,9.9h-2l-5-9.9V60H90V43.9z"/>
			<path class="st3" d="M123.5,60l-1.4-3.4h-7.9l-1.4,3.4h-3.2l7.1-16.1h3.2l7,16.1H123.5z M115.3,54h5.7l-2.8-6.8L115.3,54z"/>
			<path class="st3" d="M128.8,43.9h3.1V60h-3.1V43.9z"/>
			<path class="st3" d="M147,43.9h3V60h-2.9l-8.3-11.1V60h-3V43.9h2.9L147,55V43.9z"/>
			<path class="st3" d="M152.1,43.9h3.3l4.7,12.7l4.8-12.7h3.2L161.6,60h-3.2L152.1,43.9z"/>
			<path class="st3" d="M170.1,43.9h3.1V60h-3.1V43.9z"/>
			<path class="st3" d="M177.1,43.9h3.1v13.3h6.9V60h-10V43.9z"/>
			<path class="st3" d="M189.6,43.9h3.1v13.3h6.9V60h-10V43.9z"/>
			<path class="st3" d="M202,43.9h11.8v2.7h-8.7v4h7.8v2.7h-7.8v4h9V60H202V43.9z"/>
			<path class="st3" d="M225.4,42.9c0.3,0.3,0.5,0.8,0.5,1.3c0,0.5-0.2,0.9-0.5,1.3c-0.3,0.3-0.7,0.5-1.2,0.5     c-0.5,0-0.9-0.2-1.2-0.5c-0.3-0.3-0.5-0.8-0.5-1.3c0-0.5,0.2-1,0.5-1.3s0.7-0.5,1.2-0.5C224.7,42.4,225.1,42.6,225.4,42.9z      M222.8,47.7h3V60h-3V47.7z"/>
			<path class="st3" d="M240.2,48.9c0.8,0.9,1.2,2,1.2,3.5V60h-3v-6.8c0-0.9-0.2-1.5-0.7-2c-0.5-0.5-1.2-0.7-2-0.7     c-1,0-1.8,0.4-2.4,1c-0.6,0.7-0.9,1.5-0.9,2.5v6h-3V47.7h3V50c0.8-1.6,2.3-2.4,4.4-2.4C238.3,47.6,239.4,48,240.2,48.9z"/>
			<path class="st3" d="M250,50.3c-1,0-1.8,0.3-2.4,1c-0.6,0.7-0.9,1.5-0.9,2.6c0,1.1,0.3,2,0.9,2.7c0.6,0.7,1.4,1,2.4,1     c1.5,0,2.6-0.5,3.3-1.4l1.9,1.5c-0.6,0.8-1.3,1.4-2.2,1.8c-0.9,0.4-2,0.6-3.2,0.6c-1.2,0-2.3-0.3-3.2-0.8s-1.7-1.3-2.2-2.2     c-0.5-0.9-0.8-2-0.8-3.3c0-1.2,0.3-2.3,0.8-3.3c0.5-1,1.3-1.7,2.2-2.2c0.9-0.5,2-0.8,3.3-0.8c1.1,0,2.1,0.2,3,0.6     c0.9,0.4,1.6,0.9,2.2,1.7l-1.8,1.7C252.4,50.7,251.3,50.3,250,50.3z"/>
			<path class="st3" d="M259.6,57.4c0.3,0.3,0.4,0.7,0.4,1.2c0,0.5-0.1,0.9-0.4,1.2c-0.3,0.3-0.7,0.5-1.1,0.5     c-0.4,0-0.8-0.2-1.1-0.5c-0.3-0.3-0.4-0.7-0.4-1.2s0.1-0.9,0.4-1.2s0.7-0.5,1.1-0.5C258.9,56.9,259.3,57.1,259.6,57.4z"/>
		</g>
	</g>
</g>
</svg>